<?xml version="1.0" encoding="UTF-8"?>
<svg version="1.1" xmlns="http://www.w3.org/2000/svg" width="256" height="256">
<path d="M0 0 C1.00484204 1.95585325 2.00373805 3.91476237 3 5.875 C3.556875 6.96554688 4.11375 8.05609375 4.6875 9.1796875 C6 12 6 12 6 14 C7.258125 13.67515625 8.51625 13.3503125 9.8125 13.015625 C17.30166501 11.52306606 24.83578146 11.70127839 32.44042969 11.73925781 C34.99438215 11.74997642 37.54763141 11.73931744 40.1015625 11.7265625 C48.32527293 11.72055102 55.98325214 11.93010199 64 14 C64.37125 12.7625 64.37125 12.7625 64.75 11.5 C66.18783174 7.47407112 68.03618922 3.78742821 70 0 C84.92227035 1.32473216 99.50287872 5.83567787 113.5625 10.875 C114.85462402 11.31114624 114.85462402 11.31114624 116.17285156 11.75610352 C122.48948924 14.13143556 125.48498362 17.32236523 129 23 C129.72703125 24.09699219 130.4540625 25.19398437 131.203125 26.32421875 C150.15475131 57.46420014 163.11781105 93.71133896 163.16796875 130.48828125 C163.17129715 131.35390182 163.17462555 132.2195224 163.17805481 133.1113739 C163.18307864 134.92393467 163.18546456 136.73650454 163.18530273 138.54907227 C163.18750802 141.3225803 163.20576242 144.09570174 163.22460938 146.86914062 C163.22754052 148.63801948 163.22952718 150.40690021 163.23046875 152.17578125 C163.23765427 153.00185379 163.24483978 153.82792633 163.25224304 154.67903137 C163.22315415 161.97320095 163.22315415 161.97320095 161 165 C158.81808533 166.69346997 156.69134353 168.20306206 154.375 169.6875 C153.36421387 170.34214233 153.36421387 170.34214233 152.33300781 171.01000977 C150.23169515 172.35608708 148.11821727 173.68071578 146 175 C145.39381836 175.38349609 144.78763672 175.76699219 144.16308594 176.16210938 C135.1857696 181.77603714 125.72058024 185.97555495 115.9375 190 C114.7712207 190.48138428 113.60494141 190.96276855 112.40332031 191.45874023 C106.92171268 193.6568538 101.91488407 195.5879326 96 196 C94.39142732 193.62788344 92.78808248 191.25249943 91.1875 188.875 C90.73568359 188.20984375 90.28386719 187.5446875 89.81835938 186.859375 C83 176.70648951 83 176.70648951 83 172 C84.10859375 171.52949219 85.2171875 171.05898437 86.359375 170.57421875 C87.82303775 169.94559436 89.28657275 169.31667244 90.75 168.6875 C91.47960937 168.37876953 92.20921875 168.07003906 92.9609375 167.75195312 C96.64636655 166.16051785 99.91758161 164.63627889 103 162 C101.45753106 160.63559355 101.45753106 160.63559355 99 160 C96.22308915 160.89743474 93.71521725 161.88127703 91.0625 163.0625 C84.09010794 165.97963163 77.17645054 168.17121974 69.8125 169.875 C68.94052979 170.07746338 68.06855957 170.27992676 67.17016602 170.48852539 C59.83572183 172.13266034 52.67512556 173.15537299 45.14453125 173.23828125 C44.40915634 173.24802979 43.67378143 173.25777832 42.91612244 173.26782227 C27.22136667 173.43316184 12.19218838 173.44242988 -3 169 C-3.72010254 168.79681152 -4.44020508 168.59362305 -5.18212891 168.38427734 C-13.58728123 165.98522446 -21.8281811 163.09905844 -30 160 C-30.99 160.99 -31.98 161.98 -33 163 C-32.42967041 163.25692627 -31.85934082 163.51385254 -31.27172852 163.77856445 C-28.69694127 164.94576981 -26.12977709 166.12887332 -23.5625 167.3125 C-22.21575195 167.91868164 -22.21575195 167.91868164 -20.84179688 168.53710938 C-19.98779297 168.93349609 -19.13378906 169.32988281 -18.25390625 169.73828125 C-17.46314697 170.09962158 -16.6723877 170.46096191 -15.85766602 170.83325195 C-14 172 -14 172 -13 175 C-14.12223506 177.36322515 -15.28132704 179.51854313 -16.625 181.75 C-17.17607422 182.68900146 -17.17607422 182.68900146 -17.73828125 183.64697266 C-20.28101965 187.93282514 -22.97807167 192.03371907 -26 196 C-33.68248465 194.80323633 -40.487222 192.47901948 -47.625 189.4375 C-48.67679443 188.99277344 -49.72858887 188.54804688 -50.81225586 188.08984375 C-62.70059105 182.96821109 -73.56529487 176.70959024 -84.375 169.625 C-85.01252197 169.20798828 -85.65004395 168.79097656 -86.30688477 168.36132812 C-89.20865865 166.40849443 -91.03477492 164.94783762 -93 162 C-93.26742554 160.13032532 -93.26742554 160.13032532 -93.29052734 158.0012207 C-93.30937988 156.79510384 -93.30937988 156.79510384 -93.32861328 155.56462097 C-93.33103027 154.69380386 -93.33344727 153.82298676 -93.3359375 152.92578125 C-93.34431641 152.01802444 -93.35269531 151.11026764 -93.36132812 150.17500305 C-93.38095862 147.22066098 -93.38089676 144.26689677 -93.375 141.3125 C-93.37445618 140.30958923 -93.37391235 139.30667847 -93.37335205 138.27337646 C-93.33537579 123.1244948 -92.64299844 108.76606521 -89 94 C-88.78569336 93.08250977 -88.57138672 92.16501953 -88.35058594 91.21972656 C-83.98132789 72.74418853 -77.14815534 55.80820512 -68.5 38.9375 C-67.97849365 37.91487061 -67.4569873 36.89224121 -66.91967773 35.83862305 C-60.84717157 24.28345756 -55.71322029 15.28040191 -43 11 C-41.41896935 10.4318278 -39.83826762 9.8627399 -38.2578125 9.29296875 C-11.9207669 0 -11.9207669 0 0 0 Z M-22 88 C-28.11444549 94.8458385 -30.49587794 100.91254224 -30.3203125 110.1171875 C-29.59374623 116.65628397 -26.88017756 123.50509961 -22 128 C-15.97738451 131.92069001 -10.21949833 134.48817598 -3 133 C3.9869115 130.78412063 8.20218398 127.51552248 11.8828125 121.18359375 C15.39775647 114.313476 16.41558517 107.07519457 14.3125 99.53515625 C11.68269757 93.12501283 7.93126189 87.87101823 2.0625 84.125 C-6.91973696 80.82540275 -14.59832014 81.88556881 -22 88 Z M63 88 C57.1783122 94.51806194 54.49349191 100.46904627 54.6796875 109.2734375 C55.46364855 115.94666688 57.91444747 123.44976879 63 128 C69.0302095 131.91472913 74.77496708 134.48931684 82 133 C88.9869115 130.78412063 93.20218398 127.51552248 96.8828125 121.18359375 C100.62112473 113.87689257 101.47099276 105.74139402 98.9375 97.8125 C96.4208989 92.04331069 92.25086005 87.45368045 87 84.0625 C78.00321774 80.87613962 70.3981137 81.88851477 63 88 Z " fill="#2DCC70" transform="translate(93,30)"/>
</svg>
