<?xml version="1.0" encoding="UTF-8"?>
<svg version="1.1" xmlns="http://www.w3.org/2000/svg" width="256" height="256">
<path d="M0 0 C1.65073013 -0.00503792 1.65073013 -0.00503792 3.33480835 -0.01017761 C6.95213976 -0.01963135 10.5694246 -0.02162801 14.18676758 -0.02270508 C16.71869424 -0.02592184 19.25062072 -0.02928622 21.782547 -0.03279114 C27.08404038 -0.03876869 32.38551662 -0.04067552 37.68701172 -0.04003906 C43.78029344 -0.03943952 49.87348629 -0.04997343 55.96674556 -0.06578273 C61.86618083 -0.08053358 67.76558151 -0.08402441 73.66503334 -0.08342934 C76.15707067 -0.08460259 78.64910879 -0.08898726 81.14113426 -0.0967617 C108.2724387 -0.17347294 133.03813094 1.61354131 153.72973633 21.17651367 C163.60334849 31.33222903 170.24913728 45.23247799 172.64379883 59.14526367 C172.90093658 60.59667503 172.90093658 60.59667503 173.16326904 62.07740784 C173.90453897 67.35554136 173.79952461 72.65719399 173.80493164 77.97705078 C173.80989655 79.15206146 173.81486145 80.32707214 173.81997681 81.53768921 C173.83455188 85.41600131 173.84139412 89.29427245 173.84692383 93.17260742 C173.8496629 94.51666348 173.85251955 95.8607193 173.85549164 97.20477486 C173.86915142 103.52658558 173.87882354 109.84838347 173.88269353 116.17020792 C173.88716026 123.42373505 173.90464979 130.67707242 173.93369412 137.93054193 C173.95545713 143.56486059 173.96540565 149.19912646 173.96673465 154.83348662 C173.967773 158.1852511 173.9749635 161.53669618 173.99155426 164.88844109 C174.11148333 190.98843484 172.18874797 214.99733821 153.64770508 235.23901367 C132.27728396 255.56799126 105.39139807 256.46344932 77.61254883 256.41088867 C75.08776818 256.4122386 72.56298778 256.41418186 70.03820801 256.41668701 C64.76658115 256.41962282 59.49500542 256.41558559 54.22338867 256.40600586 C48.16691614 256.39512554 42.11057837 256.39865268 36.0541091 256.40965867 C30.17868126 256.41989996 24.30330378 256.41872496 18.4278717 256.4128952 C15.9497933 256.41157024 13.47171141 256.41316552 10.99363708 256.41785431 C-16.32414681 256.45821146 -41.17490964 254.55207351 -61.89135742 234.72729492 C-82.45784691 213.18300086 -82.51413365 184.13364975 -82.52416992 156.17651367 C-82.52739224 154.04821756 -82.530757 151.91992165 -82.53425598 149.79162598 C-82.54021628 145.34374479 -82.54209918 140.89588294 -82.54150391 136.44799805 C-82.54140268 130.80838121 -82.55502831 125.16889138 -82.57227612 119.5293045 C-82.58351499 115.13463801 -82.58541948 110.74000103 -82.58489418 106.34532166 C-82.58605751 104.26935897 -82.59038397 102.19339509 -82.59822655 100.1174469 C-82.69277257 72.49892456 -82.07494559 42.50030716 -61.83959961 21.24609375 C-45.09040638 4.81201246 -22.76048777 -0.01010275 0 0 Z M-16.90917969 25.47045898 C-18.03186076 25.6435364 -18.03186076 25.6435364 -19.17722225 25.82011032 C-30.81929993 27.86308963 -41.16547654 33.66120094 -48.35620117 43.14526367 C-60.11310075 61.60929318 -58.51559192 84.26946132 -58.52416992 105.31713867 C-58.52739679 107.21551537 -58.53076184 109.11389184 -58.53425598 111.01226807 C-58.54019362 114.96545995 -58.54210142 118.91863015 -58.54150391 122.87182617 C-58.54140247 127.87460476 -58.55506052 132.87724087 -58.57227612 137.87998581 C-58.58353 141.79425667 -58.58541908 145.70849449 -58.58489418 149.62277985 C-58.58605404 151.4642918 -58.59035956 153.3058052 -58.59822655 155.14730072 C-58.63603871 164.90889514 -58.38688795 174.58642433 -57.52929688 184.31420898 C-57.46009883 185.15216381 -57.39090078 185.99011864 -57.31960583 186.85346603 C-56.30122446 197.20182626 -53.11409615 205.53157628 -47.35620117 214.14526367 C-46.48995117 215.47557617 -46.48995117 215.47557617 -45.60620117 216.83276367 C-28.91462001 233.98799987 -3.92518465 232.84894348 18.28308105 233.20333862 C26.19938526 233.28196253 34.11540163 233.28891396 42.03198242 233.27563477 C45.45680215 233.26993809 48.88154412 233.27332927 52.3063612 233.27907562 C96.43518931 235.68537798 96.43518931 235.68537798 135.20629883 218.77026367 C136.01067383 217.90401367 136.81504883 217.03776367 137.64379883 216.14526367 C138.46879883 215.29963867 139.29379883 214.45401367 140.14379883 213.58276367 C153.55814017 197.12163187 150.80366657 170.85066454 150.81176758 150.97338867 C150.81499445 149.07501197 150.81835949 147.1766355 150.82185364 145.27825928 C150.82779128 141.32506739 150.82969907 137.37189719 150.82910156 133.41870117 C150.82900012 128.41592258 150.84265817 123.41328647 150.85987377 118.41054153 C150.87112766 114.49627068 150.87301674 110.58203286 150.87249184 106.6677475 C150.87365169 104.82623554 150.87795722 102.98472214 150.8858242 101.14322662 C150.92393684 91.30406283 150.64918394 81.57462606 149.73876953 71.77319336 C149.61926201 70.47541395 149.61926201 70.47541395 149.4973402 69.15141678 C148.40787172 58.47779547 145.35936893 49.59282995 138.64379883 41.14526367 C138.16555664 40.53038086 137.68731445 39.91549805 137.19458008 39.28198242 C127.47099979 28.23579927 112.60684095 25.22853374 98.64379883 24.14526367 C95.15234055 24.00946486 91.66523824 23.98839453 88.17138672 23.98413086 C86.6787883 23.9766835 86.6787883 23.9766835 85.15603638 23.96908569 C81.89283532 23.95458866 78.62968293 23.94768159 75.36645508 23.94213867 C74.24092161 23.93931129 73.11538815 23.93648392 71.9557476 23.93357086 C65.9945846 23.91862584 60.03344549 23.90936784 54.07226562 23.9050293 C47.96710308 23.8995638 41.86216569 23.87556268 35.7570734 23.84705734 C31.01677345 23.82827484 26.27652594 23.82321704 21.53619194 23.82169342 C19.28831189 23.81869947 17.04043203 23.81078378 14.79258919 23.79750824 C4.13166865 23.73905882 -6.35368544 23.84108381 -16.90917969 25.47045898 Z " fill="#2DCC70" transform="translate(82.356201171875,-0.145263671875)"/>
<path d="M0 0 C0.85722656 0.2784375 1.71445313 0.556875 2.59765625 0.84375 C9.16211893 3.19762224 14.50440312 6.75381394 20 11 C20.68964844 11.51175781 21.37929687 12.02351563 22.08984375 12.55078125 C34.69137509 22.6070528 42.44338415 38.71237756 44.44140625 54.484375 C46.33827685 73.12843323 41.63346213 90.15037555 30 105 C29.45472656 105.71027344 28.90945312 106.42054688 28.34765625 107.15234375 C18.5044147 119.21899986 3.25744524 126.70102748 -12 129 C-22.58955087 129.97756506 -32.8922153 129.48440721 -43 126 C-43.85722656 125.7215625 -44.71445313 125.443125 -45.59765625 125.15625 C-62.11221759 119.23449076 -74.55934229 106.23160734 -82.25 90.8125 C-89.63236442 74.01466011 -89.90141757 56.20520666 -84 39 C-76.89004469 21.14402579 -63.52444148 8.60230954 -46 1 C-31.55308347 -4.60138928 -14.67935125 -5.060341 0 0 Z M-55.9375 37.3125 C-62.75881645 46.75110813 -65.29390128 58.40564651 -63.57421875 69.828125 C-61.24423696 80.74902126 -56.27201186 90.51394476 -47 97 C-45.6696875 98.051875 -45.6696875 98.051875 -44.3125 99.125 C-33.74008914 105.10938351 -22.67104659 106.7507848 -10.73046875 104.33984375 C1.36270181 100.7538073 9.65518989 93.84332443 16 83 C21.81600842 71.06453924 22.04887118 59.58354209 18 47 C16.29545755 43.4195086 14.30250473 40.22227204 12 37 C11.4225 36.113125 10.845 35.22625 10.25 34.3125 C2.15439416 25.99201622 -7.67334191 21.01778849 -19.2746582 20.52905273 C-34.12754967 20.33514225 -46.23246711 25.7657871 -55.9375 37.3125 Z " fill="#2DCC70" transform="translate(150,65)"/>
<path d="M0 0 C4.95375266 4.3640202 7.27104896 7.40814569 7.72265625 14.0390625 C7.5035121 19.14073841 5.37854975 22.46705394 2.0625 26.1875 C-2.27167651 29.96601286 -5.78406572 29.65300161 -11.390625 29.5859375 C-15.45253773 29.21377272 -17.45960596 28.15500919 -20.375 25.3125 C-23.70132386 20.84822324 -25.15408505 17.26459572 -24.89453125 11.66015625 C-23.9147574 7.23275711 -21.51916768 3.53851152 -18.375 0.3125 C-12.43062222 -2.73714007 -5.96420797 -2.98210398 0 0 Z " fill="#2DCC70" transform="translate(205.375,45.6875)"/>
</svg>
