<?xml version="1.0" encoding="UTF-8"?>
<svg version="1.1" xmlns="http://www.w3.org/2000/svg" width="256" height="256">
<path d="M0 0 C1.97213382 -0.00706566 3.94426222 -0.01581339 5.91638184 -0.02610779 C11.25122547 -0.04854003 16.58577155 -0.04567624 21.92064428 -0.03678632 C26.3836848 -0.0316625 30.84667008 -0.03898039 35.3097049 -0.04625839 C45.84356367 -0.06323821 56.37727751 -0.05971127 66.91113281 -0.04296875 C77.75735446 -0.02605201 88.60317351 -0.04188037 99.44935119 -0.07419163 C108.78132814 -0.10093286 118.11318011 -0.1081512 127.4451915 -0.09967655 C133.01005943 -0.09476026 138.57468526 -0.09689255 144.13952255 -0.11746407 C149.37480307 -0.13589216 154.60950706 -0.12977542 159.84475708 -0.10526466 C161.75866538 -0.10027923 163.67261815 -0.10368715 165.58649063 -0.11641312 C178.28218367 -0.19410909 190.20604685 0.47984949 199.98486328 9.73266602 C206.62253733 17.55867046 209.82124577 25.62274648 209.77963257 35.85638428 C209.78416368 36.67933275 209.78869479 37.50228121 209.79336321 38.35016751 C209.8059942 41.09979488 209.80438768 43.84922384 209.80273438 46.59887695 C209.80872048 48.57366184 209.81552622 50.5484444 209.8230896 52.52322388 C209.8407496 57.88288575 209.84544502 63.24248374 209.84672117 68.6021719 C209.84814347 71.9528183 209.85241459 75.3034485 209.85771561 78.65409088 C209.87621675 90.3495639 209.88438622 102.04499135 209.8828125 113.74047852 C209.88161148 124.63203344 209.90270599 135.52339007 209.93429983 146.41489482 C209.96047808 155.77391513 209.97117912 165.13287075 209.96990168 174.49192739 C209.96939245 180.07800979 209.97505399 185.663916 209.99625778 191.24996185 C210.01566583 196.50643143 210.01574693 201.76255723 210.00122452 207.01903915 C209.99913843 208.9434675 210.0038253 210.8679175 210.01594543 212.79230881 C210.09457836 226.14707882 209.31857667 237.42266704 199.51220703 247.53344727 C191.79003177 253.85159066 183.87809058 256.99787923 173.96221924 256.92785645 C173.13897305 256.93394755 172.31572687 256.94003865 171.46753383 256.94631433 C168.72870103 256.96286783 165.99033706 256.95817951 163.25146484 256.95336914 C161.27962769 256.96071402 159.30779483 256.96930146 157.33596802 256.97903442 C151.99279301 257.00121756 146.64977238 257.00418261 141.30655766 257.00228691 C136.8386533 257.00216704 132.37078144 257.0107383 127.90288615 257.01906443 C117.35662201 257.03828785 106.81043702 257.04118653 96.26416016 257.03442383 C85.40322383 257.02778713 74.54262747 257.05063508 63.68176007 257.08773756 C54.34134128 257.11848209 45.00103158 257.12978933 35.66056323 257.12590075 C30.08894529 257.12383779 24.51759183 257.12924226 18.94602203 257.15379333 C13.7025801 257.17613574 8.45968871 257.17412027 3.21624374 257.15386581 C1.29910475 257.15046877 -0.61807185 257.15548813 -2.53516006 257.1698494 C-15.83626363 257.26256223 -27.55623356 256.29881163 -37.73388672 246.63110352 C-44.25396552 238.83314736 -46.63944477 231.38454559 -46.62823486 221.43756104 C-46.63120599 220.61491029 -46.63417711 219.79225954 -46.63723826 218.94467998 C-46.64591959 216.18421973 -46.64743304 213.42380289 -46.64892578 210.66333008 C-46.65355436 208.6855968 -46.65857908 206.70786441 -46.66397095 204.73013306 C-46.67709326 199.35397151 -46.68353961 193.97782244 -46.68798161 188.60164738 C-46.69091266 185.24265691 -46.69501754 181.88366985 -46.69948578 178.52468109 C-46.71316039 168.01468269 -46.72282717 157.50469209 -46.72668767 146.99468541 C-46.73116818 134.86340766 -46.74871597 122.7322426 -46.77768826 110.60099912 C-46.79930665 101.223374 -46.80939204 91.84578059 -46.81072879 82.46813083 C-46.81177672 76.86757752 -46.81768208 71.26713015 -46.8355484 65.66660309 C-46.85203166 60.39708801 -46.85418327 55.12775846 -46.84540939 49.85822678 C-46.84463915 47.92650989 -46.84897999 45.99478301 -46.85886765 44.06309128 C-46.87159642 41.4209301 -46.86570534 38.77942513 -46.85528564 36.13726807 C-46.86334205 35.37732772 -46.87139845 34.61738738 -46.87969899 33.83441854 C-46.7975737 24.89753651 -43.10075047 17.39372865 -37.48779297 10.53344727 C-26.60747877 -0.01928758 -14.24257041 -0.05372764 0 0 Z M9.51220703 54.53344727 C4.72148608 59.54192826 2.87196573 63.44980128 2.07470703 70.28344727 C2.24671632 76.67236363 5.50620358 82.47465425 9.88720703 86.97094727 C16.05235694 90.64067935 21.35073303 92.75613795 28.51220703 91.53344727 C34.51407585 89.52089811 39.27975234 86.83170604 42.61376953 81.34594727 C45.56201541 75.39818167 46.33022218 69.90181614 44.51220703 63.53344727 C41.32413229 57.0638363 37.37010746 52.26130384 30.41455078 49.78735352 C22.29140462 47.54408331 16.0814967 49.27801553 9.51220703 54.53344727 Z M91.51220703 112.53344727 C91.51220703 113.19344727 91.51220703 113.85344727 91.51220703 114.53344727 C90.85220703 114.53344727 90.19220703 114.53344727 89.51220703 114.53344727 C89.54701172 113.84637695 89.58181641 113.15930664 89.61767578 112.45141602 C89.65828125 111.09983398 89.65828125 111.09983398 89.69970703 109.72094727 C89.73451172 108.82762695 89.76931641 107.93430664 89.80517578 107.01391602 C89.71156062 104.54583567 89.71156062 104.54583567 88.37475586 102.90332031 C85.70888637 100.94261855 83.70333132 101.14514827 80.41845703 101.13500977 C78.62601563 101.12920898 78.62601563 101.12920898 76.79736328 101.12329102 C75.54826172 101.13489258 74.29916016 101.14649414 73.01220703 101.15844727 C71.76310547 101.1468457 70.51400391 101.13524414 69.22705078 101.12329102 C68.03208984 101.1271582 66.83712891 101.13102539 65.60595703 101.13500977 C63.96143555 101.14008545 63.96143555 101.14008545 62.28369141 101.14526367 C59.10382666 101.59064642 58.43977189 102.05564079 56.51220703 104.53344727 C56.06118777 106.5082137 56.06118777 106.5082137 56.12452698 108.70837402 C56.11462234 109.5579921 56.10471771 110.40761017 56.09451294 111.28297424 C56.09901459 112.21189987 56.10351624 113.1408255 56.1081543 114.09790039 C56.10129105 115.07863022 56.0944278 116.05936005 56.08735657 117.06980896 C56.0690243 120.31825147 56.07293496 123.56621403 56.07861328 126.81469727 C56.07405487 129.06766925 56.06875033 131.32063985 56.06272888 133.5736084 C56.05378535 138.29807175 56.05623544 143.02236617 56.06616211 147.74682617 C56.07765862 153.81016865 56.0574357 159.87292936 56.02824497 165.93619537 C56.00992676 170.58925091 56.0101666 175.24216588 56.01588249 179.89524841 C56.01603622 182.13122881 56.00995007 184.36721843 55.99759102 186.60316467 C55.98276412 189.72548269 55.99329693 192.84671095 56.01049805 195.96899414 C56.00083008 196.89791977 55.99116211 197.8268454 55.98120117 198.78392029 C55.90585535 203.64913565 55.90585535 203.64913565 58.38145447 207.60795593 C61.05715381 208.77014463 63.09477118 208.90579649 66.01220703 208.89672852 C67.06408203 208.89608398 68.11595703 208.89543945 69.19970703 208.89477539 C70.83939453 208.87060547 70.83939453 208.87060547 72.51220703 208.84594727 C73.60533203 208.84916992 74.69845703 208.85239258 75.82470703 208.85571289 C82.48281038 208.98639878 82.48281038 208.98639878 88.51220703 206.53344727 C89.82223976 203.9133818 89.64400957 201.96736195 89.65405273 199.03320312 C89.66108719 197.88117905 89.66812164 196.72915497 89.67536926 195.54222107 C89.67953354 194.29022415 89.68369781 193.03822723 89.68798828 191.74829102 C89.70524909 189.7838757 89.72253386 187.81946027 89.74119091 185.85505772 C89.78670623 181.00675564 89.82444326 176.15856229 89.83813477 171.31005859 C89.84630556 168.59440618 89.8649794 165.87920969 89.89506531 163.16371155 C89.92307842 160.60836432 89.93614513 158.05279693 89.9322052 155.49729919 C90.06256396 146.21627326 91.73689657 138.30875772 98.51220703 131.53344727 C103.7578074 128.98686521 108.78432548 128.93912572 114.51220703 129.53344727 C117.57470703 131.03344727 117.57470703 131.03344727 119.51220703 132.53344727 C120.17220703 132.53344727 120.83220703 132.53344727 121.51220703 132.53344727 C125.25252651 141.3499146 125.81619785 148.691486 125.85595703 158.23657227 C125.87829536 160.24502176 125.90064439 162.2534712 125.92363739 164.2619133 C125.96885394 168.48176927 125.99693643 172.70177296 126.02789307 176.92175293 C126.05412542 180.41095555 126.08411714 183.90002523 126.12414551 187.38909912 C126.15328071 190.00103383 126.17363698 192.61308387 126.18444824 195.22515869 C126.19786255 196.40358337 126.21127686 197.58200806 126.22509766 198.79614258 C126.23603455 200.35332001 126.23603455 200.35332001 126.24719238 201.94195557 C126.33250784 204.77000525 126.33250784 204.77000525 128.51220703 207.53344727 C133.51361332 209.20058269 138.71323929 208.75995218 143.94970703 208.78344727 C145.66770508 208.81438477 145.66770508 208.81438477 147.42041016 208.84594727 C148.52191406 208.85110352 149.62341797 208.85625977 150.75830078 208.86157227 C151.76562256 208.87091797 152.77294434 208.88026367 153.81079102 208.88989258 C157.03174619 208.46489533 158.21079178 207.80805603 160.51220703 205.53344727 C161.10642399 202.84236201 161.10642399 202.84236201 160.99804688 199.73950195 C161.00420013 198.5468573 161.01035339 197.35421265 161.01669312 196.12542725 C161.00232208 194.8317926 160.98795105 193.53815796 160.97314453 192.20532227 C160.97075679 190.85549089 160.96985548 189.50565614 160.97036743 188.15582275 C160.96723552 185.31762021 160.95066471 182.47992132 160.92382812 179.6418457 C160.89023713 176.0482123 160.88218855 172.455142 160.88371849 168.86137009 C160.8831669 166.06588602 160.87206973 163.27051914 160.85771561 160.47507477 C160.84844947 158.5196728 160.84482875 156.5642466 160.84140015 154.60882568 C160.67555704 138.61589554 159.75919448 121.92868736 148.51220703 109.53344727 C139.70024552 100.95964688 128.65365549 100.16008189 117.02001953 100.31469727 C106.44671149 100.66495178 98.59614371 104.61610628 91.51220703 112.53344727 Z M7.51220703 104.53344727 C6.88243728 107.70999502 6.95607383 110.86867304 6.97875977 114.09790039 C6.9701442 115.07863022 6.96152863 116.05936005 6.95265198 117.06980896 C6.92991024 120.31837192 6.93674577 123.56607803 6.94580078 126.81469727 C6.94056904 129.06767027 6.93429423 131.32064107 6.92701721 133.5736084 C6.91659795 138.29811908 6.92119682 143.02232885 6.93579102 147.74682617 C6.95298529 153.81030013 6.92948279 159.87282711 6.89430141 165.93619537 C6.87237377 170.5892773 6.87375763 175.242131 6.88206673 179.89524841 C6.8828887 182.13123107 6.8759786 184.36723008 6.8612957 186.60316467 C6.84393477 189.72570556 6.85832229 192.8465236 6.88110352 195.96899414 C6.86941132 196.89791977 6.85771912 197.8268454 6.84567261 198.78392029 C6.88078157 201.1412225 6.94925458 203.24434632 7.51220703 205.53344727 C10.85202892 208.44950695 13.52990285 208.91098461 17.89111328 208.89672852 C18.89464844 208.89608398 19.89818359 208.89543945 20.93212891 208.89477539 C22.48770508 208.87060547 22.48770508 208.87060547 24.07470703 208.84594727 C25.63608398 208.85078125 25.63608398 208.85078125 27.22900391 208.85571289 C33.67558671 208.94654461 33.67558671 208.94654461 39.51220703 206.53344727 C41.23978393 203.07829347 40.67799649 199.08597715 40.68920898 195.28198242 C40.69578018 194.32251205 40.70235138 193.36304169 40.7091217 192.37449646 C40.72887825 189.19050017 40.74052149 186.00655105 40.75048828 182.82250977 C40.75456381 181.73711285 40.75863934 180.65171593 40.76283836 179.53342819 C40.78370743 173.79059793 40.79800652 168.04779164 40.80737305 162.30493164 C40.81844967 156.36389922 40.85286184 150.4232401 40.89254475 144.48233986 C40.91864654 139.92191861 40.92705907 135.36158725 40.93065453 130.80109787 C40.9355358 128.61058399 40.94719327 126.42007453 40.96569252 124.22963333 C40.98995068 121.16735178 40.9891434 118.10604869 40.98217773 115.04370117 C41.00139282 113.68140129 41.00139282 113.68140129 41.02099609 112.2915802 C41.00516163 107.28561078 41.00516163 107.28561078 38.65068054 102.97041321 C35.88245154 101.11027756 34.11547529 101.03120361 30.79345703 101.03735352 C29.69646484 101.03670898 28.59947266 101.03606445 27.46923828 101.03540039 C26.32841797 101.05538086 25.18759766 101.07536133 24.01220703 101.09594727 C22.87138672 101.08885742 21.73056641 101.08176758 20.55517578 101.07446289 C13.28466279 100.7912642 13.28466279 100.7912642 7.51220703 104.53344727 Z " fill="#2DCC70" transform="translate(46.48779296875,-0.533447265625)"/>
</svg>
