<?xml version="1.0" encoding="UTF-8"?>
<svg version="1.1" xmlns="http://www.w3.org/2000/svg" width="96" height="96">
<path d="M0 0 C1.26811523 -0.01260864 2.53623047 -0.02521729 3.84277344 -0.03820801 C5.22331295 -0.03104817 6.60384739 -0.02284418 7.984375 -0.01367188 C9.40397406 -0.0163675 10.82357131 -0.02025051 12.24316406 -0.02526855 C15.21567394 -0.03116045 18.18770241 -0.02261142 21.16015625 -0.00390625 C24.96696287 0.01888413 28.77264149 0.00575925 32.57940674 -0.01819611 C35.51001456 -0.03266301 38.44035574 -0.02804423 41.37097168 -0.01768494 C42.77437474 -0.01502007 44.17780215 -0.01827905 45.58117676 -0.02760315 C47.54369635 -0.03778128 49.50630102 -0.01951228 51.46875 0 C52.58475586 0.00318237 53.70076172 0.00636475 54.85058594 0.00964355 C57.734375 0.51757812 57.734375 0.51757812 60.09362793 2.1583252 C62.21628961 5.21052982 62.24139082 7.07917501 62.25195312 10.78320312 C62.26456177 12.05131836 62.27717041 13.31943359 62.29016113 14.62597656 C62.2830013 16.00651608 62.27479731 17.38705051 62.265625 18.76757812 C62.26832062 20.18717718 62.27220363 21.60677444 62.27722168 23.02636719 C62.28311358 25.99887707 62.27456454 28.97090554 62.25585938 31.94335938 C62.233069 35.75016599 62.24619388 39.55584462 62.27014923 43.36260986 C62.28461614 46.29321769 62.27999735 49.22355887 62.26963806 52.1541748 C62.26697319 53.55757786 62.27023217 54.96100527 62.27955627 56.36437988 C62.28973441 58.32689947 62.2714654 60.28950414 62.25195312 62.25195312 C62.24877075 63.36795898 62.24558838 64.48396484 62.24230957 65.63378906 C61.734375 68.51757812 61.734375 68.51757812 60.09362793 70.87683105 C57.0414233 72.99949274 55.17277811 73.02459394 51.46875 73.03515625 C49.56657715 73.05406921 49.56657715 73.05406921 47.62597656 73.07336426 C46.24543705 73.06620442 44.86490261 73.05800043 43.484375 73.04882812 C42.06477594 73.05152375 40.64517869 73.05540676 39.22558594 73.0604248 C36.25307606 73.0663167 33.28104759 73.05776767 30.30859375 73.0390625 C26.50178713 73.01627212 22.69610851 73.029397 18.88934326 73.05335236 C15.95873544 73.06781926 13.02839426 73.06320048 10.09777832 73.05284119 C8.69437526 73.05017632 7.29094785 73.0534353 5.88757324 73.0627594 C3.92505365 73.07293753 1.96244898 73.05466853 0 73.03515625 C-1.11600586 73.03197388 -2.23201172 73.0287915 -3.38183594 73.0255127 C-6.265625 72.51757812 -6.265625 72.51757812 -8.62487793 70.87683105 C-10.74753961 67.82462643 -10.77264082 65.95598124 -10.78320312 62.25195312 C-10.79581177 60.98383789 -10.80842041 59.71572266 -10.82141113 58.40917969 C-10.8142513 57.02864017 -10.80604731 55.64810574 -10.796875 54.26757812 C-10.79957062 52.84797907 -10.80345363 51.42838181 -10.80847168 50.00878906 C-10.81436358 47.03627918 -10.80581454 44.06425071 -10.78710938 41.09179688 C-10.764319 37.28499026 -10.77744388 33.47931163 -10.80139923 29.67254639 C-10.81586614 26.74193856 -10.81124735 23.81159738 -10.80088806 20.88098145 C-10.79822319 19.47757839 -10.80148217 18.07415098 -10.81080627 16.67077637 C-10.82098441 14.70825678 -10.8027154 12.74565211 -10.78320312 10.78320312 C-10.78002075 9.66719727 -10.77683838 8.55119141 -10.77355957 7.40136719 C-10.265625 4.51757812 -10.265625 4.51757812 -8.62487793 2.1583252 C-5.5726733 0.03566351 -3.70402811 0.01056231 0 0 Z M9.734375 32.51757812 C9.734375 34.16757812 9.734375 35.81757812 9.734375 37.51757812 C12.374375 37.51757812 15.014375 37.51757812 17.734375 37.51757812 C17.734375 46.42757812 17.734375 55.33757812 17.734375 64.51757812 C19.714375 64.51757812 21.694375 64.51757812 23.734375 64.51757812 C23.734375 55.60757813 23.734375 46.69757812 23.734375 37.51757812 C26.374375 37.51757812 29.014375 37.51757812 31.734375 37.51757812 C31.734375 35.86757813 31.734375 34.21757813 31.734375 32.51757812 C24.474375 32.51757812 17.214375 32.51757812 9.734375 32.51757812 Z M36.37109375 35.38085938 C34.43645889 37.90650441 33.81205299 39.33278049 33.734375 42.51757812 C35.52103134 47.49469223 39.38974414 49.39571718 43.7734375 51.89257812 C46.24993747 53.94481715 46.42723037 55.38258461 46.734375 58.51757812 C42.21819901 58.59412348 38.14352283 58.61986508 33.734375 57.51757812 C33.734375 59.16757813 33.734375 60.81757812 33.734375 62.51757812 C37.92067749 64.61072937 43.17438784 63.93653833 47.734375 63.51757812 C51.10405523 62.29317642 51.10405523 62.29317642 52.734375 59.51757812 C53.36176004 56.70873501 53.34549429 54.32872687 52.734375 51.51757812 C49.89991707 47.38399364 44.99616441 45.0415505 40.734375 42.51757812 C41.064375 41.19757812 41.394375 39.87757812 41.734375 38.51757812 C45.034375 38.51757812 48.334375 38.51757812 51.734375 38.51757812 C51.734375 36.86757813 51.734375 35.21757813 51.734375 33.51757812 C49.65219138 33.40925643 47.56838371 33.33184271 45.484375 33.26757812 C44.32421875 33.22117188 43.1640625 33.17476562 41.96875 33.12695312 C38.6628068 33.24153825 38.6628068 33.24153825 36.37109375 35.38085938 Z " fill="#DD3062" transform="translate(22.265625,11.482421875)"/>
</svg>
