<?xml version="1.0" encoding="UTF-8"?>
<svg version="1.1" xmlns="http://www.w3.org/2000/svg" width="512" height="512">
<path d="M0 0 C0.97088562 0.00215515 1.94177124 0.0043103 2.94207764 0.00653076 C17.27751026 0.05757173 31.28525803 0.44028152 45.375 3.3125 C46.40109375 3.51649414 47.4271875 3.72048828 48.484375 3.93066406 C102.7927681 14.98216467 156.63074276 43.03469976 192.375 86.3125 C193.15617187 87.19421875 193.93734375 88.0759375 194.7421875 88.984375 C228.7208583 127.51662856 249.32177107 176.49888964 255.375 227.3125 C255.47071289 228.08916016 255.56642578 228.86582031 255.66503906 229.66601562 C256.66374049 238.93711486 256.61864669 248.24844488 256.625 257.5625 C256.62601212 258.89775223 256.62601212 258.89775223 256.62704468 260.25997925 C256.61033246 274.16220138 255.97020515 287.62396301 253.375 301.3125 C253.2193457 302.199375 253.06369141 303.08625 252.90332031 304 C247.31669192 335.40108892 235.53899598 367.38049 218.375 394.3125 C217.88306152 395.08867676 217.39112305 395.86485352 216.88427734 396.66455078 C209.10319506 408.84733181 200.79758432 420.35066384 191.375 431.3125 C190.64410156 432.17359375 189.91320312 433.0346875 189.16015625 433.921875 C178.25370137 446.39835698 166.45655251 458.21296075 153.09326172 468.03857422 C151.34464318 469.33500666 149.62671197 470.66538718 147.91015625 472.00390625 C126.05063254 488.83345998 100.57198803 500.96244899 74.375 509.3125 C73.50794434 509.60656738 72.64088867 509.90063477 71.74755859 510.20361328 C70.43972412 510.6306958 70.43972412 510.6306958 69.10546875 511.06640625 C68.31938232 511.32881104 67.5332959 511.59121582 66.72338867 511.86157227 C63.98674387 512.38705131 62.07069129 511.9175496 59.375 511.3125 C59.37944122 510.0348024 59.38388245 508.7571048 59.38845825 507.44068909 C59.42919605 495.3346081 59.45907578 483.22854122 59.47862434 471.12240696 C59.48901263 464.90017884 59.50308021 458.67800655 59.52587891 452.45581055 C59.54778538 446.43870948 59.55960577 440.42166175 59.56475449 434.40452385 C59.56841855 432.12150166 59.57557239 429.83848203 59.58646011 427.55548286 C59.70092533 402.53355056 58.50786124 383.23483173 42.59765625 363.05859375 C41.375 361.3125 41.375 361.3125 41.375 359.3125 C42.39315796 359.0791394 42.39315796 359.0791394 43.43188477 358.84106445 C80.03776092 350.39832112 114.65916342 337.84278828 135.52636719 304.47119141 C150.11865733 280.42940093 155.56495449 249.8084803 149.47265625 222.265625 C145.47917585 207.2376281 139.29200494 192.90784789 130.17578125 180.26171875 C125.40248156 173.63161486 125.40248156 173.63161486 125.3203125 169.6875 C125.84314826 166.83265078 126.58273614 164.10410896 127.375 161.3125 C131.07176543 143.21187413 129.73461098 123.40791922 122.375 106.3125 C101.25047943 109.09976313 81.73403402 116.29267647 64.2578125 128.83154297 C60.69218004 131.38333082 58.3909782 132.68104884 53.9375 132.24609375 C52.41016731 131.96854549 50.88866082 131.65689671 49.375 131.3125 C48.27671875 131.09231201 48.27671875 131.09231201 47.15625 130.86767578 C44.88828148 130.4000071 42.6328447 129.88915089 40.375 129.375 C11.03684998 123.0517039 -18.31990758 124.05649114 -47.46264648 131.12988281 C-53.43691149 132.52088586 -57.3874009 132.50850326 -62.96484375 129.52734375 C-64.16909283 128.77623477 -65.36809973 128.0166737 -66.5625 127.25 C-67.89021752 126.42822107 -69.21969626 125.60928191 -70.55078125 124.79296875 C-71.2257666 124.37837402 -71.90075195 123.9637793 -72.59619141 123.53662109 C-88.33427254 114.04074398 -103.37828512 108.68245346 -121.625 106.3125 C-128.65126234 127.20356246 -131.55201739 147.79364485 -124.68359375 169.25390625 C-124.59103502 174.08547184 -127.32625479 176.91221126 -130.125 180.6875 C-140.84422355 195.93397138 -147.19818761 212.78277621 -149.625 231.3125 C-149.810625 232.52873047 -149.810625 232.52873047 -150 233.76953125 C-153.50829298 261.61660679 -145.70554458 290.86491967 -128.6875 313.125 C-106.44860505 341.35561369 -74.59034999 352.07272018 -40.625 359.3125 C-42.02288331 363.31159915 -43.92796092 366.27164339 -46.5 369.625 C-52.88716457 378.29906979 -55.49245643 385.7144047 -57.625 396.3125 C-66.90860874 399.98225593 -78.07236011 401.5591911 -87.5625 397.75 C-95.95623075 393.17729594 -100.70899442 386.95727742 -105.77319336 379.08276367 C-114.46988842 365.69061542 -126.72296402 353.5554647 -142.77050781 349.81201172 C-147.69765644 348.81399062 -152.65007058 348.02986966 -157.625 347.3125 C-157.4084375 349.19582031 -157.4084375 349.19582031 -157.1875 351.1171875 C-156.24342435 359.54739596 -155.34640957 367.81549185 -155.625 376.3125 C-154.9959375 376.38726562 -154.366875 376.46203125 -153.71875 376.5390625 C-142.67338497 378.23579026 -136.34539404 384.73549904 -129.625 393.3125 C-127.5259042 396.35420863 -125.50000677 399.43748968 -123.47265625 402.52734375 C-114.65904331 415.81298017 -100.53173664 424.45843734 -84.9375 427.625 C-76.29854359 428.93505634 -68.40230032 428.11043639 -59.625 427.3125 C-59.625 455.3625 -59.625 483.4125 -59.625 512.3125 C-66.64830052 511.43458743 -72.2720299 510.04825184 -78.875 507.8125 C-80.454021 507.27955322 -80.454021 507.27955322 -82.06494141 506.73583984 C-113.82153825 495.77060045 -142.60988396 478.21232093 -167.29296875 455.453125 C-170.46604243 452.54048785 -173.73653409 449.74293361 -177.0078125 446.94140625 C-178.625 445.3125 -178.625 445.3125 -178.625 443.3125 C-179.285 443.3125 -179.945 443.3125 -180.625 443.3125 C-181.96484375 442.01953125 -181.96484375 442.01953125 -183.5625 440.125 C-184.18511719 439.39023437 -184.80773437 438.65546875 -185.44921875 437.8984375 C-186.16722656 437.04507812 -186.88523437 436.19171875 -187.625 435.3125 C-188.45644531 434.35601562 -189.28789062 433.39953125 -190.14453125 432.4140625 C-232.59769809 383.42904601 -256.13149187 320.69126782 -256 255.9375 C-255.99945618 254.92637146 -255.99891235 253.91524292 -255.99835205 252.87347412 C-255.95843339 236.69172651 -255.07622729 221.17396241 -251.625 205.3125 C-251.30354004 203.78906982 -251.30354004 203.78906982 -250.97558594 202.23486328 C-243.1665466 166.08253488 -227.66603128 132.91742763 -205.625 103.3125 C-205.17688965 102.70599609 -204.7287793 102.09949219 -204.26708984 101.47460938 C-166.96789114 51.33696844 -110.16731592 15.91891566 -48.875 4.0625 C-48.09745361 3.91151855 -47.31990723 3.76053711 -46.51879883 3.60498047 C-31.00085837 0.77890241 -15.74677716 -0.06300193 0 0 Z " fill="#2DCC70" transform="translate(255.625,-0.3125)"/>
</svg>
